<svg xmlns="http://www.w3.org/2000/svg">
  <defs>
    <symbol id="icon-IconArrowDown" viewBox="0 0 25 32">
    <title>IconArrowDown</title>
    <path fill="#6a6c6e" style="fill: var(--color1, #6a6c6e)" d="M1.394 18.103c0.337 0.025 0.654 0.171 0.891 0.411l8.891 8.754v-25.829c0-0.77 0.624-1.394 1.394-1.394s1.394 0.624 1.394 1.394v25.829l8.891-8.754c0.403-0.337 0.962-0.419 1.445-0.211s0.808 0.669 0.841 1.194c0.027 0.401-0.123 0.794-0.411 1.074l-11.177 11.017c-0.544 0.54-1.422 0.54-1.966 0v0l-11.177-11.017c-0.337-0.403-0.419-0.962-0.211-1.445s0.669-0.808 1.194-0.841v-0.183z"></path>
    </symbol>
    <symbol id="icon-IconBoltWhite" viewBox="0 0 32 32">
    <title>IconBoltWhite</title>
    <path fill="#fff" style="fill: var(--color2, #fff)" d="M11.393 32l3.452-11.427h-10.374l16.137-20.573-3.461 11.427h10.384z"></path>
    </symbol>
    <symbol id="icon-IconCarrierDefault" viewBox="0 0 25 32">
    <title>IconCarrierDefault</title>
    <path fill="#d5d5d5" style="fill: var(--color3, #d5d5d5)" d="M24.756 1.98c-0.068-0.035-0.149-0.056-0.235-0.056s-0.166 0.021-0.237 0.057l0.003-0.001c-1.3 0.657-2.835 1.042-4.459 1.042-0.008 0-0.016 0-0.024-0h0.001c-0.029 0-0.063 0-0.097 0-2.393 0-4.584-0.867-6.275-2.305l0.014 0.011-0.573-0.573c-0.094-0.092-0.223-0.149-0.365-0.149s-0.271 0.057-0.365 0.149l-0.573 0.573c-1.668 1.395-3.835 2.242-6.2 2.242-0.056 0-0.111-0-0.166-0.001l0.008 0c-0.007 0-0.015 0-0.023 0-1.624 0-3.159-0.385-4.517-1.069l0.058 0.026c-0.061-0.028-0.133-0.044-0.209-0.044-0.285 0-0.516 0.228-0.521 0.512v11.57c0.005 7.168 3.986 13.406 9.856 16.628l0.098 0.050 2.293 1.251h0.469l2.293-1.251c5.99-3.259 9.99-9.499 10.007-16.675v-11.572c-0.012-0.179-0.113-0.331-0.258-0.416l-0.002-0.001zM23.974 13.967c0 0.016 0 0.034 0 0.053 0 6.778-3.75 12.68-9.289 15.744l-0.092 0.047-2.085 1.147-2.085-1.147c-5.66-3.103-9.433-9.020-9.433-15.819 0-0.009 0-0.017 0-0.026v0.001-10.788c1.248 0.525 2.699 0.831 4.22 0.834h0.001c0.015 0 0.034 0 0.052 0 2.652 0 5.078-0.966 6.946-2.566l-0.014 0.012 0.313-0.261 0.313 0.261c1.853 1.588 4.28 2.554 6.932 2.554 0.018 0 0.037-0 0.055-0h-0.003c0.032 0 0.070 0.001 0.108 0.001 1.481 0 2.895-0.287 4.189-0.809l-0.075 0.027zM12.821 2.762c-0.081-0.054-0.18-0.086-0.287-0.086s-0.206 0.032-0.289 0.087l0.002-0.001c-1.926 1.401-4.338 2.241-6.946 2.241-0.032 0-0.063-0-0.095-0l0.005 0c-0.021 0-0.046 0-0.070 0-0.898 0-1.773-0.095-2.617-0.275l0.082 0.015c-0.032-0.007-0.068-0.011-0.106-0.011-0.273 0-0.498 0.21-0.519 0.478l-0 0.002v8.756c0 0.003 0 0.007 0 0.011 0 6.424 3.565 12.015 8.824 14.903l0.088 0.044 1.355 0.73h0.469l1.355-0.73c5.371-2.922 8.957-8.52 8.964-14.957v-8.757c-0.022-0.27-0.246-0.48-0.52-0.48-0.037 0-0.074 0.004-0.109 0.011l0.003-0.001c-0.762 0.166-1.638 0.261-2.535 0.261-0.025 0-0.049-0-0.074-0l0.004 0c-0.026 0-0.057 0-0.089 0-2.592 0-4.987-0.841-6.928-2.264l0.033 0.023zM21.994 13.967c-0.001 6.047-3.357 11.31-8.308 14.030l-0.083 0.042-1.094 0.573-1.147-0.625c-5.034-2.761-8.39-8.024-8.391-14.072v-8.13c0.617 0.1 1.328 0.157 2.053 0.157 0.048 0 0.096-0 0.143-0.001l-0.007 0c0.045 0.001 0.098 0.001 0.151 0.001 2.684 0 5.177-0.818 7.243-2.219l-0.045 0.029c2.015 1.403 4.515 2.241 7.21 2.241 0.030 0 0.061-0 0.091-0l-0.005 0c0.040 0 0.088 0.001 0.136 0.001 0.725 0 1.436-0.057 2.13-0.167l-0.077 0.010zM17.459 13.446h-0.782c-0.138-0.007-0.255-0.089-0.312-0.206l-0.001-0.002-0.417-0.886c-0.782-1.511-3.44-1.511-3.44-1.511s-2.658 0-3.44 1.511l-0.417 0.886c-0.057 0.119-0.175 0.202-0.312 0.208l-0.001 0h-0.834c-0.151 0.024-0.266 0.153-0.266 0.309 0 0.020 0.002 0.039 0.005 0.058l-0-0.002 0.156 0.678c0.042 0.24 0.229 0.427 0.466 0.469l0.003 0.001h0.156c-0.297 0.389-0.476 0.882-0.476 1.417 0 0.504 0.159 0.97 0.429 1.353l-0.005-0.007c0.098 0.141 0.157 0.315 0.157 0.503 0 0.006-0 0.013-0 0.019l0-0.001v0.73c0 0.001 0 0.001 0 0.002 0 0.356 0.274 0.648 0.623 0.675l0.002 0h0.678c0.262-0.069 0.454-0.297 0.469-0.572l0-0.002v-0.208c0-0.115 0.093-0.208 0.208-0.208v0h4.743c0.115 0 0.208 0.093 0.208 0.208v0 0.208c-0.001 0.016-0.002 0.034-0.002 0.052 0 0.345 0.28 0.625 0.625 0.625 0.001 0 0.002 0 0.002 0h0.677c0.001 0 0.001 0 0.002 0 0.345 0 0.625-0.28 0.625-0.625 0-0.018-0.001-0.037-0.002-0.054l0 0.002v-0.73c-0-0.005-0-0.012-0-0.018 0-0.188 0.059-0.362 0.158-0.506l-0.002 0.003c0.265-0.375 0.424-0.842 0.424-1.345 0-0.535-0.179-1.028-0.481-1.423l0.004 0.006h0.104c0.24-0.074 0.42-0.272 0.468-0.517l0.001-0.004 0.156-0.678c0.011-0.031 0.018-0.067 0.018-0.105 0-0.173-0.14-0.313-0.313-0.313-0.006 0-0.013 0-0.019 0.001l0.001-0zM9.485 13.081c0.189-0.48 0.562-0.853 1.030-1.038l0.012-0.004c0.525-0.167 1.13-0.263 1.756-0.263 0.061 0 0.121 0.001 0.181 0.003l-0.009-0c0.045-0.001 0.098-0.002 0.151-0.002 0.634 0 1.245 0.096 1.821 0.274l-0.044-0.012c0.48 0.189 0.853 0.562 1.038 1.030l0.004 0.012 0.313 0.73c0 0.052 0 0.104-0.052 0.104h-6.41c-0.052 0-0.104-0.052-0.052-0.104zM9.381 17.407c-0.415-0.102-0.719-0.472-0.719-0.912s0.303-0.81 0.712-0.911l0.006-0.001c0.415 0.102 0.719 0.472 0.719 0.912s-0.303 0.81-0.712 0.911l-0.006 0.001zM15.479 17.407c-0.047 0.008-0.101 0.013-0.156 0.013-0.518 0-0.938-0.42-0.938-0.938s0.42-0.938 0.938-0.938c0.514 0 0.931 0.413 0.938 0.924v0.001c0.005 0.033 0.007 0.071 0.007 0.11 0 0.426-0.32 0.778-0.733 0.828l-0.004 0z"></path>
    </symbol>
    <symbol id="icon-IconChevronDown" viewBox="0 0 62 32">
    <title>IconChevronDown</title>
    <path fill="#fff" style="fill: var(--color2, #fff)" d="M31.205 32l-31.205-28.079 3.55-3.921 27.603 24.848 27.126-24.848 3.55 3.921-30.623 28.079z"></path>
    </symbol>
    <symbol id="icon-IconFeatures247Support" viewBox="0 0 31 32">
    <title>IconFeatures247Support</title>
    <path fill="#fff" stroke="#d5d5d5" stroke-width="0.7692" stroke-miterlimit="4" stroke-linecap="butt" stroke-linejoin="miter" style="stroke: var(--color3, #d5d5d5); fill: var(--color2, #fff)" d="M25.886 24.428c1.264-0.779 2.116-2.12 2.207-3.666l0.001-0.013v-9.766c-0.114-1.533-0.961-2.845-2.187-3.601l-0.020-0.011-8.963-4.95c-0.646-0.314-1.405-0.497-2.207-0.497s-1.561 0.183-2.238 0.51l0.031-0.013-8.963 4.95c-1.247 0.767-2.093 2.079-2.206 3.597l-0.001 0.015v9.766c0.114 1.533 0.961 2.846 2.187 3.601l0.020 0.011 8.963 4.883c0.646 0.314 1.405 0.497 2.207 0.497s1.561-0.183 2.238-0.51l-0.031 0.013z"></path>
    <path fill="#959595" style="fill: var(--color4, #959595)" d="M14.047 17.204v-6.020h1.338v4.682h3.344v1.338h-4.682zM14.716 9.98c-3.251 0-5.886 2.635-5.886 5.886s2.635 5.886 5.886 5.886c3.251 0 5.886-2.635 5.886-5.886v0c0-3.251-2.635-5.886-5.886-5.886v0zM14.716 23.224c-4.064 0-7.358-3.294-7.358-7.358s3.294-7.358 7.358-7.358c4.064 0 7.358 3.294 7.358 7.358v0c0 4.064-3.294 7.358-7.358 7.358v0z"></path>
    </symbol>
    <symbol id="icon-IconFeaturesAutomaticPayment" viewBox="0 0 31 32">
    <title>IconFeaturesAutomaticPayment</title>
    <path fill="#fff" stroke="#d5d5d5" stroke-width="0.7692" stroke-miterlimit="4" stroke-linecap="butt" stroke-linejoin="miter" style="stroke: var(--color3, #d5d5d5); fill: var(--color2, #fff)" d="M25.886 24.428c1.264-0.779 2.116-2.12 2.207-3.666l0.001-0.013v-9.766c-0.114-1.533-0.961-2.845-2.187-3.601l-0.020-0.011-8.963-4.95c-0.646-0.314-1.405-0.497-2.207-0.497s-1.561 0.183-2.238 0.51l0.031-0.013-8.963 4.95c-1.247 0.767-2.093 2.079-2.206 3.597l-0.001 0.015v9.766c0.114 1.533 0.961 2.846 2.187 3.601l0.020 0.011 8.963 4.883c0.646 0.314 1.405 0.497 2.207 0.497s1.561-0.183 2.238-0.51l-0.031 0.013z"></path>
    <path fill="#959595" style="fill: var(--color4, #959595)" d="M18.595 16v-1.605c-0.87-0.268-1.472-0.401-1.739-1.003s0.067-1.070 0.468-1.873l-1.271-1.137c-0.87 0.401-1.338 0.669-2.007 0.401s-0.803-0.803-1.137-1.605h-1.806c-0.334 0.803-0.401 1.338-1.137 1.605v0c-0.669 0.268-1.137-0.067-2.007-0.401l-1.204 1.137c0.401 0.803 0.736 1.204 0.468 1.873s-0.87 0.736-1.739 1.003v1.605c0.87 0.268 1.472 0.401 1.739 1.003s-0.067 1.070-0.468 1.873l1.271 1.070c0.87-0.401 1.338-0.669 2.007-0.401v0c0.669 0.268 0.803 0.803 1.137 1.605h1.739c0.334-0.803 0.401-1.338 1.137-1.605v0c0.669-0.268 1.137 0.067 2.007 0.401l1.271-1.137c-0.401-0.803-0.736-1.204-0.468-1.873s0.803-0.669 1.739-0.936zM12.040 17.137c-0.040 0.003-0.087 0.004-0.135 0.004-1.123 0-2.038-0.893-2.073-2.008l-0-0.003c0.035-1.118 0.949-2.011 2.073-2.011 0.047 0 0.094 0.002 0.141 0.005l-0.006-0c0.040-0.003 0.087-0.004 0.135-0.004 1.123 0 2.038 0.893 2.073 2.008l0 0.003c-0.035 1.118-0.949 2.011-2.073 2.011-0.047 0-0.094-0.002-0.141-0.005l0.006 0zM24.013 20.080v-0.736c-0.401-0.134-0.669-0.201-0.803-0.468s0-0.468 0.201-0.87l-0.602-0.535c-0.401 0.201-0.602 0.334-0.936 0.201s-0.401-0.401-0.535-0.736h-0.87c-0.134 0.401-0.201 0.602-0.535 0.736s-0.535 0-0.936-0.201l-0.602 0.535c0.201 0.401 0.334 0.602 0.201 0.87s-0.401 0.334-0.803 0.468v0.736c0.401 0.134 0.669 0.201 0.803 0.468s0 0.535-0.201 0.87l0.602 0.535c0.401-0.201 0.602-0.334 0.936-0.201s0.401 0.401 0.535 0.736h0.803c0.134-0.401 0.201-0.602 0.535-0.736v0c0.334-0.134 0.535 0 0.936 0.201l0.602-0.535c-0.201-0.334-0.334-0.602-0.201-0.87s0.401-0.268 0.803-0.401zM20.936 20.615c-0.488-0.036-0.87-0.44-0.87-0.934 0-0.517 0.419-0.936 0.936-0.936s0.935 0.418 0.936 0.934v0c0 0.001 0 0.001 0 0.002 0 0.554-0.449 1.003-1.003 1.003-0.024 0-0.047-0.001-0.070-0.002l0.003 0z"></path>
    </symbol>
    <symbol id="icon-IconFeaturesBuyOnline" viewBox="0 0 31 32">
    <title>IconFeaturesBuyOnline</title>
    <path fill="#fff" stroke="#d5d5d5" stroke-width="0.7692" stroke-miterlimit="4" stroke-linecap="butt" stroke-linejoin="miter" style="stroke: var(--color3, #d5d5d5); fill: var(--color2, #fff)" d="M25.886 24.428c1.264-0.779 2.116-2.12 2.207-3.666l0.001-0.013v-9.766c-0.114-1.533-0.961-2.845-2.187-3.601l-0.020-0.011-8.963-4.95c-0.646-0.314-1.405-0.497-2.207-0.497s-1.561 0.183-2.238 0.51l0.031-0.013-8.963 4.95c-1.247 0.767-2.093 2.079-2.206 3.597l-0.001 0.015v9.766c0.114 1.533 0.961 2.846 2.187 3.601l0.020 0.011 8.963 4.883c0.646 0.314 1.405 0.497 2.207 0.497s1.561-0.183 2.238-0.51l-0.031 0.013z"></path>
    <path fill="#959595" style="fill: var(--color4, #959595)" d="M12.575 23.224l1.605-5.217h-4.749l7.425-9.498-1.605 5.284h4.749z"></path>
    </symbol>
    <symbol id="icon-IconFeaturesCreditCard" viewBox="0 0 31 32">
    <title>IconFeaturesCreditCard</title>
    <path fill="#fff" stroke="#d5d5d5" stroke-width="0.7692" stroke-miterlimit="4" stroke-linecap="butt" stroke-linejoin="miter" style="stroke: var(--color3, #d5d5d5); fill: var(--color2, #fff)" d="M25.886 24.428c1.264-0.779 2.116-2.12 2.207-3.666l0.001-0.013v-9.766c-0.114-1.533-0.961-2.845-2.187-3.601l-0.020-0.011-8.963-4.95c-0.646-0.314-1.405-0.497-2.207-0.497s-1.561 0.183-2.238 0.51l0.031-0.013-8.963 4.95c-1.247 0.767-2.093 2.079-2.206 3.597l-0.001 0.015v9.766c0.114 1.533 0.961 2.846 2.187 3.601l0.020 0.011 8.963 4.883c0.646 0.314 1.405 0.497 2.207 0.497s1.561-0.183 2.238-0.51l-0.031 0.013z"></path>
    <path fill="#959595" style="fill: var(--color4, #959595)" d="M19.866 16.468h-1.94v0.602h1.94zM15.318 16.468h-5.752v0.602h5.819zM13.378 17.672h-3.813v0.602h3.88zM21.137 10.983h-12.91c-0.001 0-0.001 0-0.002 0-0.678 0-1.233 0.531-1.269 1.201l-0 0.003v7.291c0.037 0.673 0.591 1.204 1.269 1.204 0.001 0 0.001 0 0.002 0h12.976c0.001 0 0.001 0 0.002 0 0.678 0 1.233-0.532 1.269-1.201l0-0.003v-7.224c-0.037-0.673-0.591-1.204-1.269-1.204-0.001 0-0.001 0-0.002 0h0zM21.137 19.144c0 0.185-0.15 0.334-0.334 0.334v0h-12.241c-0.185 0-0.334-0.15-0.334-0.334v0-3.88h12.977zM21.137 13.391h-12.91v-0.87c0-0.185 0.15-0.334 0.334-0.334v0h12.308c0.185 0 0.334 0.15 0.334 0.334v0z"></path>
    </symbol>
    <symbol id="icon-IconFeaturesDriverExclusion" viewBox="0 0 31 32">
    <title>IconFeaturesDriverExclusion</title>
    <path fill="#fff" stroke="#d5d5d5" stroke-width="0.7692" stroke-miterlimit="4" stroke-linecap="butt" stroke-linejoin="miter" style="stroke: var(--color3, #d5d5d5); fill: var(--color2, #fff)" d="M25.886 24.428c1.264-0.779 2.116-2.12 2.207-3.666l0.001-0.013v-9.766c-0.114-1.533-0.961-2.845-2.187-3.601l-0.020-0.011-8.963-4.95c-0.646-0.314-1.405-0.497-2.207-0.497s-1.561 0.183-2.238 0.51l0.031-0.013-8.963 4.95c-1.247 0.767-2.093 2.079-2.206 3.597l-0.001 0.015v9.766c0.114 1.533 0.961 2.846 2.187 3.601l0.020 0.011 8.963 4.883c0.646 0.314 1.405 0.497 2.207 0.497s1.561-0.183 2.238-0.51l-0.031 0.013z"></path>
    <path fill="#959595" style="fill: var(--color4, #959595)" d="M14.716 8.508c-4.064 0-7.358 3.294-7.358 7.358s3.294 7.358 7.358 7.358c4.064 0 7.358-3.294 7.358-7.358v0c0-4.064-3.294-7.358-7.358-7.358v0zM14.716 22.020c-3.387-0.016-6.126-2.765-6.126-6.154 0-1.476 0.52-2.83 1.386-3.891l-0.009 0.011 3.010 3.010c0.141 0.51 0.323 0.955 0.552 1.37l-0.016-0.033c0.468 0.936-0.535 1.137-1.538 1.338s-1.003 0.669-1.003 1.405v0.401h6.488l1.070 1.070c-1.020 0.882-2.349 1.432-3.805 1.471l-0.008 0zM19.465 19.746l-1.070-1.070c-0.067-0.468-0.268-0.736-0.936-0.936l-1.538-1.538c1.338-2.609 0.268-4.013-1.204-4.013-0.012-0-0.026-0-0.040-0-0.745 0-1.38 0.468-1.628 1.126l-0.004 0.012-2.14-2.14c0.978-0.684 2.192-1.093 3.501-1.093 3.399 0 6.154 2.755 6.154 6.154 0 1.309-0.409 2.523-1.106 3.521l0.013-0.020z"></path>
    </symbol>
    <symbol id="icon-IconFeaturesImmediateCoverage" viewBox="0 0 31 32">
    <title>IconFeaturesImmediateCoverage</title>
    <path fill="#fff" stroke="#d5d5d5" stroke-width="0.7692" stroke-miterlimit="4" stroke-linecap="butt" stroke-linejoin="miter" style="stroke: var(--color3, #d5d5d5); fill: var(--color2, #fff)" d="M25.886 24.428c1.264-0.779 2.116-2.12 2.207-3.666l0.001-0.013v-9.766c-0.114-1.533-0.961-2.845-2.187-3.601l-0.020-0.011-8.963-4.95c-0.646-0.314-1.405-0.497-2.207-0.497s-1.561 0.183-2.238 0.51l0.031-0.013-8.963 4.95c-1.247 0.767-2.093 2.079-2.206 3.597l-0.001 0.015v9.766c0.114 1.533 0.961 2.846 2.187 3.601l0.020 0.011 8.963 4.883c0.646 0.314 1.405 0.497 2.207 0.497s1.561-0.183 2.238-0.51l-0.031 0.013z"></path>
    <path fill="#959595" style="fill: var(--color4, #959595)" d="M14.716 8.508c-2.007 1.739-3.211 1.806-5.284 1.806v7.090c0 2.809 1.873 3.545 5.284 5.819 3.411-2.274 5.284-3.010 5.284-5.819v-7.023c-2.074 0-3.278-0.134-5.284-1.873zM13.579 19.947l0.87-2.943h-2.609l4.013-5.217-0.87 2.943h2.542z"></path>
    </symbol>
    <symbol id="icon-IconFeaturesLocalAgent" viewBox="0 0 31 32">
    <title>IconFeaturesLocalAgent</title>
    <path fill="#fff" stroke="#d5d5d5" stroke-width="0.7692" stroke-miterlimit="4" stroke-linecap="butt" stroke-linejoin="miter" style="stroke: var(--color3, #d5d5d5); fill: var(--color2, #fff)" d="M25.886 24.428c1.264-0.779 2.116-2.12 2.207-3.666l0.001-0.013v-9.766c-0.114-1.533-0.961-2.845-2.187-3.601l-0.020-0.011-8.963-4.95c-0.646-0.314-1.405-0.497-2.207-0.497s-1.561 0.183-2.238 0.51l0.031-0.013-8.963 4.95c-1.247 0.767-2.093 2.079-2.206 3.597l-0.001 0.015v9.766c0.114 1.533 0.961 2.846 2.187 3.601l0.020 0.011 8.963 4.883c0.646 0.314 1.405 0.497 2.207 0.497s1.561-0.183 2.238-0.51l-0.031 0.013z"></path>
    <path fill="#959595" style="fill: var(--color4, #959595)" d="M14.716 8.508c-0.001 0-0.003 0-0.004 0-2.626 0-4.768 2.073-4.878 4.672l-0 0.010c0 2.542 2.14 5.619 4.883 10.033 2.809-4.415 4.883-7.492 4.883-10.033-0.111-2.609-2.253-4.682-4.879-4.682-0.001 0-0.003 0-0.004 0h0zM14.716 15.264c-0.020 0.001-0.043 0.001-0.066 0.001-1.034 0-1.873-0.839-1.873-1.873s0.839-1.873 1.873-1.873c1.034 0 1.873 0.839 1.873 1.873 0 0.023-0 0.046-0.001 0.069l0-0.003c0 0.997-0.809 1.806-1.806 1.806v0z"></path>
    </symbol>
    <symbol id="icon-IconFeaturesLowDownPayment" viewBox="0 0 31 32">
    <title>IconFeaturesLowDownPayment</title>
    <path fill="#fff" stroke="#d5d5d5" stroke-width="0.7692" stroke-miterlimit="4" stroke-linecap="butt" stroke-linejoin="miter" style="stroke: var(--color3, #d5d5d5); fill: var(--color2, #fff)" d="M25.886 24.428c1.264-0.779 2.116-2.12 2.207-3.666l0.001-0.013v-9.766c-0.114-1.533-0.961-2.845-2.187-3.601l-0.020-0.011-8.963-4.95c-0.646-0.314-1.405-0.497-2.207-0.497s-1.561 0.183-2.238 0.51l0.031-0.013-8.963 4.95c-1.247 0.767-2.093 2.079-2.206 3.597l-0.001 0.015v9.766c0.114 1.533 0.961 2.846 2.187 3.601l0.020 0.011 8.963 4.883c0.646 0.314 1.405 0.497 2.207 0.497s1.561-0.183 2.238-0.51l-0.031 0.013z"></path>
    <path fill="#959595" style="fill: var(--color4, #959595)" d="M14.716 23.224l6.355-7.826h-3.88v-6.89h-4.95v6.89h-3.88z"></path>
    </symbol>
    <symbol id="icon-IconFeaturesMobile" viewBox="0 0 31 32">
    <title>IconFeaturesMobile</title>
    <path fill="#fff" stroke="#d5d5d5" stroke-width="0.7692" stroke-miterlimit="4" stroke-linecap="butt" stroke-linejoin="miter" style="stroke: var(--color3, #d5d5d5); fill: var(--color2, #fff)" d="M25.886 24.428c1.264-0.779 2.116-2.12 2.207-3.666l0.001-0.013v-9.766c-0.114-1.533-0.961-2.845-2.187-3.601l-0.020-0.011-8.963-4.95c-0.646-0.314-1.405-0.497-2.207-0.497s-1.561 0.183-2.238 0.51l0.031-0.013-8.963 4.95c-1.247 0.767-2.093 2.079-2.206 3.597l-0.001 0.015v9.766c0.114 1.533 0.961 2.846 2.187 3.601l0.020 0.011 8.963 4.883c0.646 0.314 1.405 0.497 2.207 0.497s1.561-0.183 2.238-0.51l-0.031 0.013z"></path>
    <path fill="#959595" style="fill: var(--color4, #959595)" d="M19.398 9.177c0-0.739-0.599-1.338-1.338-1.338v0h-6.689c-0.739 0-1.338 0.599-1.338 1.338v0 13.378c0 0.739 0.599 1.338 1.338 1.338v0h6.689c0.739 0 1.338-0.599 1.338-1.338v0zM13.712 9.177h2.007c0.185 0 0.334 0.15 0.334 0.334s-0.15 0.334-0.334 0.334v0h-2.007c-0.185 0-0.334-0.15-0.334-0.334s0.15-0.334 0.334-0.334v0zM14.716 22.555c-0.369 0-0.669-0.299-0.669-0.669s0.299-0.669 0.669-0.669c0.369 0 0.669 0.299 0.669 0.669v0c0 0.369-0.299 0.669-0.669 0.669v0zM18.060 20.549h-6.689v-9.365h6.689z"></path>
    </symbol>
    <symbol id="icon-IconFeaturesNewCarReplacement" viewBox="0 0 31 32">
    <title>IconFeaturesNewCarReplacement</title>
    <path fill="#fff" stroke="#d5d5d5" stroke-width="0.7692" stroke-miterlimit="4" stroke-linecap="butt" stroke-linejoin="miter" style="stroke: var(--color3, #d5d5d5); fill: var(--color2, #fff)" d="M25.886 24.428c1.264-0.779 2.116-2.12 2.207-3.666l0.001-0.013v-9.766c-0.114-1.533-0.961-2.845-2.187-3.601l-0.020-0.011-8.963-4.95c-0.646-0.314-1.405-0.497-2.207-0.497s-1.561 0.183-2.238 0.51l0.031-0.013-8.963 4.95c-1.247 0.767-2.093 2.079-2.206 3.597l-0.001 0.015v9.766c0.114 1.533 0.961 2.846 2.187 3.601l0.020 0.011 8.963 4.883c0.646 0.314 1.405 0.497 2.207 0.497s1.561-0.183 2.238-0.51l-0.031 0.013z"></path>
    <path fill="#959595" style="fill: var(--color4, #959595)" d="M19.264 19.077c-0.676-0.033-1.211-0.589-1.211-1.27 0-0.048 0.003-0.095 0.008-0.141l-0 0.006c-0.005-0.042-0.008-0.091-0.008-0.14 0-0.657 0.499-1.198 1.139-1.264l0.005-0c0.646 0.066 1.145 0.607 1.145 1.265 0 0.049-0.003 0.098-0.008 0.146l0.001-0.006c0.006 0.045 0.009 0.096 0.009 0.148 0 0.634-0.464 1.16-1.072 1.255l-0.007 0.001zM14.716 13.793h-4.749c-0.067 0-0.134-0.134-0.067-0.201l0.468-1.070c0.285-0.705 0.833-1.254 1.52-1.532l0.018-0.007c0.787-0.257 1.692-0.405 2.632-0.405 0.086 0 0.171 0.001 0.256 0.004l-0.012-0c0.061-0.002 0.134-0.002 0.206-0.002 0.953 0 1.871 0.148 2.734 0.421l-0.064-0.018c0.705 0.285 1.254 0.833 1.532 1.52l0.007 0.018 0.468 1.070c0 0.067 0 0.201-0.067 0.201zM10.167 19.077c-0.646-0.066-1.145-0.607-1.145-1.265 0-0.049 0.003-0.098 0.008-0.146l-0.001 0.006c-0.005-0.042-0.008-0.091-0.008-0.14 0-0.657 0.499-1.198 1.139-1.264l0.005-0c0.676 0.033 1.211 0.589 1.211 1.27 0 0.048-0.003 0.095-0.008 0.141l0.001-0.006c0.005 0.041 0.007 0.088 0.007 0.135 0 0.681-0.535 1.237-1.208 1.269l-0.003 0zM22.341 14.662l0.201-1.003c0.013-0.041 0.020-0.088 0.020-0.136 0-0.242-0.184-0.441-0.42-0.466l-0.002-0h-1.204c-0.212-0.011-0.39-0.145-0.467-0.331l-0.001-0.004-0.669-1.338c-1.070-2.207-5.084-2.207-5.084-2.207s-4.013 0-5.084 2.274l-0.669 1.338c-0.078 0.19-0.256 0.323-0.467 0.334l-0.001 0h-1.204c-0.238 0.024-0.422 0.224-0.422 0.466 0 0.049 0.007 0.095 0.021 0.139l-0.001-0.003 0.201 1.003c0.049 0.363 0.316 0.653 0.663 0.735l0.006 0.001h0.201c-0.439 0.584-0.704 1.321-0.704 2.12 0 0.759 0.238 1.462 0.644 2.038l-0.008-0.011c0.126 0.2 0.201 0.444 0.201 0.705 0 0.011-0 0.021-0 0.032l0-0.002v1.137c0 0.001 0 0.001 0 0.002 0 0.531 0.412 0.965 0.933 1.001l0.003 0h1.003c0.525-0.036 0.936-0.471 0.936-1.001 0-0.001 0-0.002 0-0.002v0-0.334c-0.005-0.020-0.009-0.043-0.009-0.067 0-0.148 0.12-0.268 0.268-0.268 0.003 0 0.006 0 0.009 0h7.023c0.154 0.032 0.268 0.167 0.268 0.328 0 0.002-0 0.005-0 0.007v-0 0.334c-0.002 0.020-0.002 0.043-0.002 0.067 0 0.517 0.419 0.936 0.936 0.936 0.001 0 0.002 0 0.003 0h1.003c0.001 0 0.002 0 0.002 0 0.517 0 0.936-0.419 0.936-0.936 0-0.024-0.001-0.047-0.003-0.070l0 0.003v-1.070c-0-0.009-0-0.020-0-0.030 0-0.261 0.075-0.505 0.204-0.711l-0.003 0.006c0.398-0.565 0.637-1.268 0.637-2.027 0-0.799-0.264-1.536-0.71-2.129l0.007 0.009h0.201c0.343-0.152 0.582-0.48 0.602-0.867l0-0.002z"></path>
    </symbol>
    <symbol id="icon-IconFeaturesNoCreditCheck" viewBox="0 0 31 32">
    <title>IconFeaturesNoCreditCheck</title>
    <path fill="#fff" stroke="#d5d5d5" stroke-width="0.7692" stroke-miterlimit="4" stroke-linecap="butt" stroke-linejoin="miter" style="stroke: var(--color3, #d5d5d5); fill: var(--color2, #fff)" d="M25.886 24.428c1.264-0.779 2.116-2.12 2.207-3.666l0.001-0.013v-9.766c-0.114-1.533-0.961-2.845-2.187-3.601l-0.020-0.011-8.963-4.95c-0.646-0.314-1.405-0.497-2.207-0.497s-1.561 0.183-2.238 0.51l0.031-0.013-8.963 4.95c-1.247 0.767-2.093 2.079-2.206 3.597l-0.001 0.015v9.766c0.114 1.533 0.961 2.846 2.187 3.601l0.020 0.011 8.963 4.883c0.646 0.314 1.405 0.497 2.207 0.497s1.561-0.183 2.238-0.51l-0.031 0.013z"></path>
    <path fill="#959595" style="fill: var(--color4, #959595)" d="M14.716 8.508c-4.064 0-7.358 3.294-7.358 7.358s3.294 7.358 7.358 7.358c4.064 0 7.358-3.294 7.358-7.358v0c0-4.064-3.294-7.358-7.358-7.358v0zM14.716 22.020c-3.387-0.016-6.126-2.765-6.126-6.154 0-1.476 0.52-2.83 1.386-3.891l-0.009 0.011 4.080 4.080-0.602 0.602c-0.731-0.506-1.566-0.976-2.443-1.366l-0.098-0.039-0.803 0.669c1.325 1.139 2.527 2.319 3.646 3.575l0.033 0.038 1.405-2.274 3.344 3.344c-1.027 0.858-2.357 1.386-3.809 1.405l-0.004 0zM19.465 19.746l-3.478-3.478c0.972-1.347 2.074-2.513 3.311-3.519l0.033-0.026-0.268-0.535c-1.576 0.88-2.936 1.878-4.159 3.021l0.012-0.011-4.080-4.080c1.026-0.794 2.331-1.273 3.748-1.273 3.399 0 6.154 2.755 6.154 6.154 0 1.417-0.479 2.722-1.283 3.762l0.011-0.014z"></path>
    </symbol>
    <symbol id="icon-IconFeaturesNonOwner" viewBox="0 0 31 32">
    <title>IconFeaturesNonOwner</title>
    <path fill="#fff" stroke="#d5d5d5" stroke-width="0.7692" stroke-miterlimit="4" stroke-linecap="butt" stroke-linejoin="miter" style="stroke: var(--color3, #d5d5d5); fill: var(--color2, #fff)" d="M25.886 24.428c1.264-0.779 2.116-2.12 2.207-3.666l0.001-0.013v-9.766c-0.114-1.533-0.961-2.845-2.187-3.601l-0.020-0.011-8.963-4.95c-0.646-0.314-1.405-0.497-2.207-0.497s-1.561 0.183-2.238 0.51l0.031-0.013-8.963 4.95c-1.247 0.767-2.093 2.079-2.206 3.597l-0.001 0.015v9.766c0.114 1.533 0.961 2.846 2.187 3.601l0.020 0.011 8.963 4.883c0.646 0.314 1.405 0.497 2.207 0.497s1.561-0.183 2.238-0.51l-0.031 0.013z"></path>
    <path fill="#959595" style="fill: var(--color4, #959595)" d="M14.716 8.508c-4.064 0-7.358 3.294-7.358 7.358s3.294 7.358 7.358 7.358c4.064 0 7.358-3.294 7.358-7.358v0c0-4.064-3.294-7.358-7.358-7.358v0zM14.716 22.020c-3.387-0.016-6.126-2.765-6.126-6.154 0-1.476 0.52-2.83 1.386-3.891l-0.009 0.011 2.007 2.007h-0.736c-0.003-0-0.008-0-0.012-0-0.111 0-0.201 0.090-0.201 0.201 0 0.024 0.004 0.047 0.012 0.069l-0-0.001v0.468c0.028 0.172 0.162 0.307 0.332 0.334l0.002 0h0.067c-0.22 0.288-0.353 0.654-0.353 1.051 0 0.356 0.107 0.687 0.29 0.962l-0.004-0.006c0.084 0.11 0.134 0.25 0.134 0.401v0.535c-0 0.001-0 0.003-0 0.005 0 0.235 0.173 0.43 0.399 0.463l0.003 0h0.468c0.228-0.034 0.401-0.228 0.401-0.463 0-0.002 0-0.003-0-0.005v0c0-0.074 0.060-0.134 0.134-0.134h2.742l2.742 2.742c-0.993 0.831-2.271 1.353-3.668 1.404l-0.011 0zM16.856 16.936l-0.334-0.134h-0.067c-0.084-0.118-0.135-0.266-0.135-0.425 0-0.015 0-0.030 0.001-0.045l-0 0.002c0.062-0.233 0.27-0.401 0.518-0.401 0.296 0 0.535 0.24 0.535 0.535 0 0.29-0.23 0.525-0.517 0.535l-0.001 0zM16.99 14.395h-2.876l-1.070-1.070 0.334-0.201c0.375-0.128 0.807-0.201 1.256-0.201 0.029 0 0.058 0 0.086 0.001l-0.004-0c0.018-0 0.040-0 0.062-0 0.456 0 0.895 0.074 1.305 0.21l-0.029-0.008c0.34 0.132 0.604 0.396 0.733 0.727l0.003 0.009 0.201 0.535c0.067 0 0 0 0 0zM13.177 16.268c0.003 0.021 0.004 0.045 0.004 0.070 0 0.31-0.235 0.566-0.537 0.599l-0.003 0c-0.369 0-0.669-0.299-0.669-0.669s0.299-0.669 0.669-0.669v0c0.273 0.061 0.474 0.301 0.474 0.588 0 0.028-0.002 0.056-0.006 0.084l0-0.003zM19.465 19.746l-1.605-1.605v-0.535c0-0.151 0.050-0.291 0.135-0.403l-0.001 0.002c0.179-0.269 0.286-0.6 0.286-0.956 0-0.397-0.133-0.762-0.356-1.055l0.003 0.004h0.067c0.181-0.054 0.314-0.21 0.334-0.399l0-0.002v-0.468c0.007-0.020 0.012-0.043 0.012-0.067 0-0.111-0.090-0.201-0.201-0.201-0.004 0-0.008 0-0.012 0l0.001-0h-0.535l-0.201-0.134-0.334-0.669c-0.535-1.070-2.408-1.070-2.408-1.070-0.81 0.005-1.554 0.281-2.149 0.742l0.008-0.006-1.739-1.739c1.033-0.812 2.353-1.303 3.787-1.303 3.399 0 6.154 2.755 6.154 6.154 0 1.401-0.468 2.692-1.256 3.726l0.011-0.015z"></path>
    </symbol>
    <symbol id="icon-IconFeaturesOnlineIdCards" viewBox="0 0 31 32">
    <title>IconFeaturesOnlineIdCards</title>
    <path fill="#fff" stroke="#d5d5d5" stroke-width="0.7692" stroke-miterlimit="4" stroke-linecap="butt" stroke-linejoin="miter" style="stroke: var(--color3, #d5d5d5); fill: var(--color2, #fff)" d="M25.886 24.428c1.264-0.779 2.116-2.12 2.207-3.666l0.001-0.013v-9.766c-0.114-1.533-0.961-2.845-2.187-3.601l-0.020-0.011-8.963-4.95c-0.646-0.314-1.405-0.497-2.207-0.497s-1.561 0.183-2.238 0.51l0.031-0.013-8.963 4.95c-1.247 0.767-2.093 2.079-2.206 3.597l-0.001 0.015v9.766c0.114 1.533 0.961 2.846 2.187 3.601l0.020 0.011 8.963 4.883c0.646 0.314 1.405 0.497 2.207 0.497s1.561-0.183 2.238-0.51l-0.031 0.013z"></path>
    <path fill="#959595" style="fill: var(--color4, #959595)" d="M21.672 11.184v9.365h-13.913v-9.365zM23.077 9.846h-16.722v12.040h16.722zM16.12 18.943v0.268h-6.957v-0.268c0-0.736 0-1.137 0.936-1.338s1.94-0.401 1.472-1.204c-1.338-2.408-0.401-3.813 1.070-3.813s2.475 1.338 1.070 3.813c-0.468 0.803 0.468 1.003 1.472 1.204s0.936 0.602 0.936 1.338zM20.268 12.522h-2.742v1.338h2.809zM20.268 15.197h-2.742v1.338h2.809zM20.268 17.873h-2.742v1.338h2.809z"></path>
    </symbol>
    <symbol id="icon-IconFeaturesOnlineServicing" viewBox="0 0 31 32">
    <title>IconFeaturesOnlineServicing</title>
    <path fill="#fff" stroke="#d5d5d5" stroke-width="0.7692" stroke-miterlimit="4" stroke-linecap="butt" stroke-linejoin="miter" style="stroke: var(--color3, #d5d5d5); fill: var(--color2, #fff)" d="M25.886 24.428c1.264-0.779 2.116-2.12 2.207-3.666l0.001-0.013v-9.766c-0.114-1.533-0.961-2.845-2.187-3.601l-0.020-0.011-8.963-4.95c-0.646-0.314-1.405-0.497-2.207-0.497s-1.561 0.183-2.238 0.51l0.031-0.013-8.963 4.95c-1.247 0.767-2.093 2.079-2.206 3.597l-0.001 0.015v9.766c0.114 1.533 0.961 2.846 2.187 3.601l0.020 0.011 8.963 4.883c0.646 0.314 1.405 0.497 2.207 0.497s1.561-0.183 2.238-0.51l-0.031 0.013z"></path>
    <path fill="#959595" style="fill: var(--color4, #959595)" d="M14.716 8.508c-4.064 0-7.358 3.294-7.358 7.358s3.294 7.358 7.358 7.358c4.064 0 7.358-3.294 7.358-7.358v0c0-4.064-3.294-7.358-7.358-7.358v0zM15.318 18.341v-1.873h1.806c-0.032 0.729-0.128 1.418-0.283 2.083l0.015-0.077zM16.522 19.679c-0.298 0.821-0.706 1.53-1.214 2.154l0.010-0.013v-2.207zM15.318 15.264v-1.873l1.538-0.134c0.139 0.589 0.235 1.277 0.267 1.982l0.001 0.024zM15.318 12.187v-2.274c0.497 0.611 0.905 1.32 1.188 2.089l0.016 0.051zM16.99 10.181c0.781 0.327 1.447 0.779 2.007 1.338v0l-1.271 0.401c-0.209-0.668-0.458-1.244-0.76-1.787l0.024 0.048zM12.575 18.475c-0.14-0.589-0.236-1.278-0.267-1.983l-0.001-0.024h1.806v1.873zM14.114 19.545v2.207c-0.498-0.61-0.906-1.32-1.188-2.090l-0.016-0.051zM12.308 15.197c0.032-0.729 0.128-1.417 0.282-2.083l-0.015 0.076 1.538 0.134v1.873zM12.91 12.053c0.299-0.821 0.707-1.53 1.215-2.154l-0.011 0.013v2.274zM11.706 11.853l-1.204-0.401c0.559-0.559 1.226-1.011 1.966-1.323l0.040-0.015c-0.322 0.498-0.615 1.072-0.848 1.674l-0.022 0.065zM11.371 13.057c-0.165 0.643-0.284 1.398-0.333 2.171l-0.002 0.036h-2.408c0.116-1.034 0.474-1.967 1.017-2.764l-0.014 0.021zM11.371 18.742l-1.739 0.535c-0.539-0.794-0.899-1.751-1.001-2.784l-0.002-0.025h2.408c0.021 0.818 0.118 1.6 0.283 2.357l-0.015-0.083zM11.706 19.947c0.237 0.643 0.507 1.195 0.826 1.713l-0.023-0.041c-0.778-0.307-1.445-0.737-2.009-1.273l0.003 0.003zM17.793 19.947l1.204 0.334c-0.562 0.534-1.229 0.964-1.965 1.256l-0.042 0.015c0.272-0.475 0.521-1.028 0.716-1.605l0.020-0.067zM18.127 18.742c0.165-0.643 0.284-1.398 0.333-2.171l0.002-0.036h2.408c-0.104 1.058-0.464 2.015-1.017 2.831l0.014-0.021zM18.462 15.264c-0.051-0.81-0.17-1.565-0.353-2.294l0.018 0.087 1.739-0.535c0.529 0.776 0.888 1.708 1.001 2.715l0.003 0.028z"></path>
    </symbol>
    <symbol id="icon-IconFeaturesPaperless" viewBox="0 0 31 32">
    <title>IconFeaturesPaperless</title>
    <path fill="#fff" stroke="#d5d5d5" stroke-width="0.7692" stroke-miterlimit="4" stroke-linecap="butt" stroke-linejoin="miter" style="stroke: var(--color3, #d5d5d5); fill: var(--color2, #fff)" d="M25.886 24.428c1.264-0.779 2.116-2.12 2.207-3.666l0.001-0.013v-9.766c-0.114-1.533-0.961-2.845-2.187-3.601l-0.020-0.011-8.963-4.95c-0.646-0.314-1.405-0.497-2.207-0.497s-1.561 0.183-2.238 0.51l0.031-0.013-8.963 4.95c-1.247 0.767-2.093 2.079-2.206 3.597l-0.001 0.015v9.766c0.114 1.533 0.961 2.846 2.187 3.601l0.020 0.011 8.963 4.883c0.646 0.314 1.405 0.497 2.207 0.497s1.561-0.183 2.238-0.51l-0.031 0.013z"></path>
    <path fill="#959595" style="fill: var(--color4, #959595)" d="M16.321 13.592c-3.63 2.076-6.486 5.147-8.242 8.842l-0.052 0.121h1.806c0.535-1.338 0.067-1.605 0.87-2.475 5.217 2.542 10.702-1.873 10.702-7.692-0.021-1.158-0.24-2.259-0.624-3.278l0.022 0.067c-1.472 2.14-3.478 0.736-6.689 1.070-4.749 0.602-6.89 4.615-5.418 7.826 2.14-2.274 5.886-4.281 7.625-4.482z"></path>
    </symbol>
    <symbol id="icon-IconFeaturesRateLock" viewBox="0 0 31 32">
    <title>IconFeaturesRateLock</title>
    <path fill="#fff" stroke="#d5d5d5" stroke-width="0.7692" stroke-miterlimit="4" stroke-linecap="butt" stroke-linejoin="miter" style="stroke: var(--color3, #d5d5d5); fill: var(--color2, #fff)" d="M25.886 24.428c1.264-0.779 2.116-2.12 2.207-3.666l0.001-0.013v-9.766c-0.114-1.533-0.961-2.845-2.187-3.601l-0.020-0.011-8.963-4.95c-0.646-0.314-1.405-0.497-2.207-0.497s-1.561 0.183-2.238 0.51l0.031-0.013-8.963 4.95c-1.247 0.767-2.093 2.079-2.206 3.597l-0.001 0.015v9.766c0.114 1.533 0.961 2.846 2.187 3.601l0.020 0.011 8.963 4.883c0.646 0.314 1.405 0.497 2.207 0.497s1.561-0.183 2.238-0.51l-0.031 0.013z"></path>
    <path fill="#959595" style="fill: var(--color4, #959595)" d="M18.328 14.729v-2.207c-0.073-1.864-1.601-3.347-3.476-3.347-0.048 0-0.096 0.001-0.143 0.003l0.007-0c-0.041-0.002-0.088-0.003-0.136-0.003-1.875 0-3.403 1.483-3.476 3.341l-0 0.007v2.207h-1.806v7.826h10.836v-7.826zM12.308 14.729v-2.207c0.072-1.235 1.091-2.208 2.337-2.208 0.025 0 0.050 0 0.074 0.001l-0.004-0c0.021-0.001 0.046-0.001 0.071-0.001 1.246 0 2.265 0.974 2.337 2.202l0 0.006v2.207z"></path>
    </symbol>
    <symbol id="icon-IconFeaturesRentersBundle" viewBox="0 0 31 32">
    <title>IconFeaturesRentersBundle</title>
    <path fill="#fff" stroke="#d5d5d5" stroke-width="0.7692" stroke-miterlimit="4" stroke-linecap="butt" stroke-linejoin="miter" style="stroke: var(--color3, #d5d5d5); fill: var(--color2, #fff)" d="M25.886 24.428c1.264-0.779 2.116-2.12 2.207-3.666l0.001-0.013v-9.766c-0.114-1.533-0.961-2.845-2.187-3.601l-0.020-0.011-8.963-4.95c-0.646-0.314-1.405-0.497-2.207-0.497s-1.561 0.183-2.238 0.51l0.031-0.013-8.963 4.95c-1.247 0.767-2.093 2.079-2.206 3.597l-0.001 0.015v9.766c0.114 1.533 0.961 2.846 2.187 3.601l0.020 0.011 8.963 4.883c0.646 0.314 1.405 0.497 2.207 0.497s1.561-0.183 2.238-0.51l-0.031 0.013z"></path>
    <path fill="#959595" style="fill: var(--color4, #959595)" d="M20.602 16.535v6.689h-3.947v-4.013h-3.88v4.013h-3.947v-6.689h-1.94l7.826-8.027 7.826 8.027zM19.933 12.589v-3.411h-1.94v1.405z"></path>
    </symbol>
    <symbol id="icon-IconFeaturesRideshare" viewBox="0 0 31 32">
    <title>IconFeaturesRideshare</title>
    <path fill="#fff" stroke="#d5d5d5" stroke-width="0.7692" stroke-miterlimit="4" stroke-linecap="butt" stroke-linejoin="miter" style="stroke: var(--color3, #d5d5d5); fill: var(--color2, #fff)" d="M25.886 24.428c1.264-0.779 2.116-2.12 2.207-3.666l0.001-0.013v-9.766c-0.114-1.533-0.961-2.845-2.187-3.601l-0.020-0.011-8.963-4.95c-0.646-0.314-1.405-0.497-2.207-0.497s-1.561 0.183-2.238 0.51l0.031-0.013-8.963 4.95c-1.247 0.767-2.093 2.079-2.206 3.597l-0.001 0.015v9.766c0.114 1.533 0.961 2.846 2.187 3.601l0.020 0.011 8.963 4.883c0.646 0.314 1.405 0.497 2.207 0.497s1.561-0.183 2.238-0.51l-0.031 0.013z"></path>
    <path fill="#959595" style="fill: var(--color4, #959595)" d="M19.398 20.549h-9.365v-0.468c0-1.003 0.067-1.538 1.271-1.806s2.609-0.602 2.007-1.739c-1.873-3.411-0.535-5.351 1.472-5.351s3.278 1.873 1.472 5.351c-0.602 1.137 0.669 1.405 2.007 1.739s1.137 0.803 1.137 1.806zM23.144 18.809c-1.003-0.201-1.94-0.468-1.472-1.271 1.405-2.609 0.334-4.013-1.070-4.013-0.042-0.004-0.090-0.006-0.14-0.006-0.924 0-1.672 0.749-1.672 1.672 0 0.049 0.002 0.098 0.006 0.146l-0-0.006c0 3.077 1.739 1.405 1.739 5.217h3.545v-0.334c0-0.736-0.067-1.204-0.936-1.405zM5.351 20.549h3.478c0-3.813 1.739-2.14 1.739-5.217 0.004-0.041 0.005-0.088 0.005-0.135 0-0.924-0.749-1.672-1.672-1.672-0.025 0-0.051 0.001-0.076 0.002l0.004-0c-1.472 0-2.475 1.405-1.070 4.013 0.468 0.87-0.468 1.070-1.472 1.271s-0.936 0.602-0.936 1.338z"></path>
    </symbol>
    <symbol id="icon-IconFeaturesRoadside" viewBox="0 0 31 32">
    <title>IconFeaturesRoadside</title>
    <path fill="#fff" stroke="#d5d5d5" stroke-width="0.7692" stroke-miterlimit="4" stroke-linecap="butt" stroke-linejoin="miter" style="stroke: var(--color3, #d5d5d5); fill: var(--color2, #fff)" d="M25.886 24.428c1.264-0.779 2.116-2.12 2.207-3.666l0.001-0.013v-9.766c-0.114-1.533-0.961-2.845-2.187-3.601l-0.020-0.011-8.963-4.95c-0.646-0.314-1.405-0.497-2.207-0.497s-1.561 0.183-2.238 0.51l0.031-0.013-8.963 4.95c-1.247 0.767-2.093 2.079-2.206 3.597l-0.001 0.015v9.766c0.114 1.533 0.961 2.846 2.187 3.601l0.020 0.011 8.963 4.883c0.646 0.314 1.405 0.497 2.207 0.497s1.561-0.183 2.238-0.51l-0.031 0.013z"></path>
    <path fill="#959595" style="fill: var(--color4, #959595)" d="M10.502 9.177l-3.813 13.378h16.053l-3.813-13.378zM14.047 17.873h1.338v3.344h-1.338zM14.047 13.86h1.338v2.676h-1.338zM14.047 10.515h1.338v2.007h-1.338z"></path>
    </symbol>
    <symbol id="icon-IconFeaturesSR22" viewBox="0 0 31 32">
    <title>IconFeaturesSR22</title>
    <path fill="#fff" stroke="#d5d5d5" stroke-width="0.7692" stroke-miterlimit="4" stroke-linecap="butt" stroke-linejoin="miter" style="stroke: var(--color3, #d5d5d5); fill: var(--color2, #fff)" d="M25.886 24.428c1.264-0.779 2.116-2.12 2.207-3.666l0.001-0.013v-9.766c-0.114-1.533-0.961-2.845-2.187-3.601l-0.020-0.011-8.963-4.95c-0.646-0.314-1.405-0.497-2.207-0.497s-1.561 0.183-2.238 0.51l0.031-0.013-8.963 4.95c-1.247 0.767-2.093 2.079-2.206 3.597l-0.001 0.015v9.766c0.114 1.533 0.961 2.846 2.187 3.601l0.020 0.011 8.963 4.883c0.646 0.314 1.405 0.497 2.207 0.497s1.561-0.183 2.238-0.51l-0.031 0.013z"></path>
    <path fill="#959595" style="fill: var(--color4, #959595)" d="M16.923 8.508h-7.692v14.716h10.97v-10.903zM19.13 21.953h-8.829v-12.174h6.020v3.144h2.742zM14.181 18.207c-0.449-0.366-0.953-0.699-1.489-0.98l-0.050-0.024-0.468 0.468c0.774 0.777 1.497 1.606 2.163 2.481l0.044 0.061c1.271-2.408 2.14-3.612 3.344-4.682l-0.134-0.401c-1.354 0.842-2.504 1.864-3.458 3.051l-0.020 0.026z"></path>
    </symbol>
    <symbol id="icon-IconStarGold" viewBox="0 0 33 32">
    <title>IconStarGold</title>
    <path fill="#fec43e" style="fill: var(--color5, #fec43e)" d="M16.651 0l4.59 11.336 12.083 0.897-9.243 7.899 2.861 11.891-10.29-6.404-10.247 6.404 2.839-11.912-9.243-7.877 12.083-0.897z"></path>
    </symbol>
    <symbol id="icon-IconStarWhite" viewBox="0 0 33 32">
    <title>IconStarWhite</title>
    <path fill="#fff" style="fill: var(--color2, #fff)" d="M16.651 0l4.59 11.336 12.083 0.897-9.243 7.899 2.861 11.891-10.29-6.404-10.247 6.404 2.839-11.912-9.243-7.877 12.083-0.897z"></path>
    </symbol>
  </defs>
</svg>
